<mxfile host="app.diagrams.net" modified="2023-10-01T17:31:52.686Z" agent="Mozilla/5.0 (X11; Linux x86_64) AppleWebKit/537.36 (KHTML, like Gecko) Chrome/117.0.0.0 Safari/537.36 Edg/117.0.2045.47" etag="WbvrE2MA32CU4VXf_DFB" version="22.0.0" type="github">
  <diagram name="PÃ¡gina-1" id="pRTNb2Z6fohzSbWohShW">
    <mxGraphModel dx="989" dy="550" grid="1" gridSize="10" guides="1" tooltips="1" connect="1" arrows="1" fold="1" page="1" pageScale="1" pageWidth="827" pageHeight="1169" math="0" shadow="0">
      <root>
        <mxCell id="0" />
        <mxCell id="1" parent="0" />
        <mxCell id="JsAZo-nT_734iw99gHI8-1" value="" style="rounded=0;whiteSpace=wrap;html=1;" vertex="1" parent="1">
          <mxGeometry width="840" height="40" as="geometry" />
        </mxCell>
        <mxCell id="JsAZo-nT_734iw99gHI8-2" value="IMAGE" style="whiteSpace=wrap;html=1;aspect=fixed;" vertex="1" parent="1">
          <mxGeometry width="40" height="40" as="geometry" />
        </mxCell>
        <mxCell id="JsAZo-nT_734iw99gHI8-4" value="menu items" style="rounded=1;whiteSpace=wrap;html=1;" vertex="1" parent="1">
          <mxGeometry x="189" width="450" height="40" as="geometry" />
        </mxCell>
        <mxCell id="JsAZo-nT_734iw99gHI8-5" value="IMAGEN DE LA PERSONA" style="whiteSpace=wrap;html=1;aspect=fixed;" vertex="1" parent="1">
          <mxGeometry x="120" y="80" width="320" height="320" as="geometry" />
        </mxCell>
        <mxCell id="JsAZo-nT_734iw99gHI8-6" value="BIOGRAFIA" style="whiteSpace=wrap;html=1;aspect=fixed;" vertex="1" parent="1">
          <mxGeometry x="480" y="80" width="320" height="320" as="geometry" />
        </mxCell>
        <mxCell id="JsAZo-nT_734iw99gHI8-8" value="FOOTER - CONTACTO" style="rounded=0;whiteSpace=wrap;html=1;" vertex="1" parent="1">
          <mxGeometry y="440" width="840" height="220" as="geometry" />
        </mxCell>
      </root>
    </mxGraphModel>
  </diagram>
</mxfile>
